HIERARCHY
ROOT joint_Root
{
	OFFSET 0.0 0.0 0.0
	CHANNELS 6 Xposition Yposition Zposition Zrotation Xrotation Yrotation 
	JOINT Hips
	{
		OFFSET -0.726466 93.3139 -2.00062
		CHANNELS 6 Xposition Yposition Zposition Zrotation Xrotation Yrotation 
		JOINT Spine
		{
			OFFSET 15.7357 0.0 0.0
			CHANNELS 6 Xposition Yposition Zposition Zrotation Xrotation Yrotation 
			JOINT Chest
			{
				OFFSET 8.98455 -0.406207 0.0
				CHANNELS 6 Xposition Yposition Zposition Zrotation Xrotation Yrotation 
				JOINT Neck
				{
					OFFSET 16.3773 0.0 0.0
					CHANNELS 6 Xposition Yposition Zposition Zrotation Xrotation Yrotation 
					JOINT Head
					{
						OFFSET 6.45672 0.0 0.0
						CHANNELS 6 Xposition Yposition Zposition Zrotation Xrotation Yrotation 
						End Site
						{
							OFFSET 0.0 0.0 0.0
						}
					}
				}
				JOINT Shoulder_L
				{
					OFFSET 12.9942 -0.242716 4.98039
					CHANNELS 6 Xposition Yposition Zposition Zrotation Xrotation Yrotation 
					JOINT UpperArm_L
					{
						OFFSET 5.34809 0.0 0.0
						CHANNELS 6 Xposition Yposition Zposition Zrotation Xrotation Yrotation 
						JOINT LowerArm_L
						{
							OFFSET 24.3286 1.87007e-05 0.0
							CHANNELS 6 Xposition Yposition Zposition Zrotation Xrotation Yrotation 
							JOINT Hand_L
							{
								OFFSET 22.2916 0.0 0.0
								CHANNELS 6 Xposition Yposition Zposition Zrotation Xrotation Yrotation 
								End Site
								{
									OFFSET 0.0 0.0 0.0
								}
							}
						}
					}
				}
				JOINT Shoulder_R
				{
					OFFSET 12.9945 -0.242716 -4.98039
					CHANNELS 6 Xposition Yposition Zposition Zrotation Xrotation Yrotation 
					JOINT UpperArm_R
					{
						OFFSET -5.34813 0.0 0.0
						CHANNELS 6 Xposition Yposition Zposition Zrotation Xrotation Yrotation 
						JOINT LowerArm_R
						{
							OFFSET -24.3289 0.000322201 0.0
							CHANNELS 6 Xposition Yposition Zposition Zrotation Xrotation Yrotation 
							JOINT Hand_R
							{
								OFFSET -22.2915 -0.000108084 0.0
								CHANNELS 6 Xposition Yposition Zposition Zrotation Xrotation Yrotation 
								End Site
								{
									OFFSET 0.0 0.0 0.0
								}
							}
						}
					}
				}
			}
		}
		JOINT UpperLeg_L
		{
			OFFSET -2.19248 -6.46944 0.0
			CHANNELS 6 Xposition Yposition Zposition Zrotation Xrotation Yrotation 
			JOINT LowerLeg_L
			{
				OFFSET 39.0811 0.0 -1.23785e-05
				CHANNELS 6 Xposition Yposition Zposition Zrotation Xrotation Yrotation 
				JOINT Foot_L
				{
					OFFSET 40.9854 0.0 -1.26872e-05
					CHANNELS 6 Xposition Yposition Zposition Zrotation Xrotation Yrotation 
					JOINT Toes_L
					{
						OFFSET 11.7543 0.0 0.0
						CHANNELS 6 Xposition Yposition Zposition Zrotation Xrotation Yrotation 
						End Site
						{
							OFFSET 0.0 0.0 0.0
						}
					}
				}
			}
		}
		JOINT UpperLeg_R
		{
			OFFSET -2.19251 6.46944 0.0
			CHANNELS 6 Xposition Yposition Zposition Zrotation Xrotation Yrotation 
			JOINT LowerLeg_R
			{
				OFFSET -39.0811 -0.00228153 -0.0401928
				CHANNELS 6 Xposition Yposition Zposition Zrotation Xrotation Yrotation 
				JOINT Foot_R
				{
					OFFSET -40.9854 0.0 0.0
					CHANNELS 6 Xposition Yposition Zposition Zrotation Xrotation Yrotation 
					JOINT Toes_R
					{
						OFFSET -11.7543 0.0 0.0
						CHANNELS 6 Xposition Yposition Zposition Zrotation Xrotation Yrotation 
						End Site
						{
							OFFSET 0.0 0.0 0.0
						}
					}
				}
			}
		}
	}
}
MOTION
Frames:	5
Frame Time:	0.0333333
0.000000 0.000000 0.000000 0.000000 0.000000 -0.000000 -0.261062 92.240700 1.099680 88.022100 0.121028 4.572230 15.735700 0.000005 -0.000001 80.271400 86.167400 -79.842100 8.984550 -0.406207 -0.000000 -0.205803 -1.324840 0.855624 16.377300 -0.000001 -0.000001 5.112490 -2.744070 1.006660 6.456720 -0.000001 -0.000000 6.276250 -3.657350 -0.864805 12.994200 -0.242716 4.980390 -84.222600 -11.969300 -63.993800 5.348090 -0.000007 -0.000001 -58.856200 -42.789400 -95.255200 24.328600 0.000019 0.000005 2.861020 1.429190 -63.475900 22.291600 -0.000001 0.000005 32.923300 5.615460 -12.305800 12.994500 -0.242716 -4.980390 93.211700 -7.907410 -67.810100 -5.348130 -0.000001 -0.000004 -50.320000 -45.868500 -96.573500 -24.328900 0.000322 -0.000009 5.830630 3.736060 -57.462600 -22.291500 -0.000108 -0.000004 31.642000 5.321420 -0.536634 -2.192480 -6.469440 -0.000000 -175.325000 -7.978390 -0.838027 39.081100 -0.000007 -0.000012 -0.110721 0.268179 22.434000 40.985400 -0.000006 -0.000013 0.063880 4.041590 -67.209400 11.754300 -0.000000 0.000003 -0.000068 -0.000741 -16.606200 -2.192510 6.469440 -0.000001 179.141000 15.814300 -177.689000 -39.081100 -0.002282 -0.040193 0.017008 -0.040464 18.685000 -40.985400 0.000008 0.000006 4.927270 7.259800 -67.027100 -11.754300 -0.000006 -0.000006 -0.008077 -0.088662 -20.183600
0.000000 0.000000 0.000000 0.000000 0.000000 -0.000000 -0.286920 92.237500 1.082830 88.023800 0.030255 4.602100 15.735700 0.000005 -0.000001 80.584700 86.172200 -80.153400 8.984550 -0.406207 -0.000000 -0.208450 -1.282090 0.859847 16.377300 -0.000001 -0.000001 5.165430 -2.665770 0.901828 6.456720 -0.000001 -0.000000 6.191670 -3.649080 -0.965576 12.994200 -0.242716 4.980390 -84.184500 -11.931700 -63.773600 5.348090 -0.000007 -0.000001 -55.938200 -42.123700 -96.244900 24.328600 0.000019 0.000005 8.465720 3.975710 -65.022400 22.291600 -0.000001 0.000005 36.829100 5.681290 -20.107700 12.994500 -0.242716 -4.980390 93.166000 -7.782360 -67.780600 -5.348130 -0.000001 -0.000004 -46.685800 -45.329200 -96.424600 -24.328900 0.000322 -0.000009 9.493950 5.075550 -62.123700 -22.291500 -0.000108 -0.000004 33.711200 5.551810 -8.782510 -2.192480 -6.469440 -0.000000 -175.323000 -7.976010 -0.826003 39.081100 -0.000007 -0.000012 -0.111950 0.270778 22.462100 40.985400 -0.000006 -0.000013 0.017088 3.880550 -67.210800 11.754300 -0.000000 0.000003 -0.000066 -0.000723 -16.605500 -2.192510 6.469440 -0.000001 179.136000 15.779900 -177.685000 -39.081100 -0.002282 -0.040193 0.013681 -0.030597 18.702200 -40.985400 0.000008 0.000006 4.775830 7.359540 -66.997000 -11.754300 -0.000006 -0.000006 -0.008349 -0.090861 -20.273400
0.000000 0.000000 0.000000 0.000000 0.000000 -0.000000 -0.304047 92.235700 1.054710 88.016000 -0.101195 4.680900 15.735700 0.000005 -0.000001 80.921200 86.152100 -80.475200 8.984550 -0.406207 -0.000000 -0.161581 -1.244890 0.889644 16.377300 -0.000001 -0.000001 5.256600 -2.566870 0.847446 6.456720 -0.000001 -0.000000 6.119610 -3.548250 -1.142990 12.994200 -0.242716 4.980390 -84.221700 -11.827900 -63.724500 5.348090 -0.000007 -0.000001 -53.753400 -41.903800 -96.656400 24.328600 0.000019 0.000005 15.456000 7.480860 -64.785500 22.291600 -0.000001 0.000005 42.841200 5.673520 -24.266800 12.994500 -0.242716 -4.980390 93.186100 -7.836290 -67.790700 -5.348130 -0.000001 -0.000004 -45.198700 -44.269500 -96.773600 -24.328900 0.000322 -0.000009 12.518600 6.414840 -63.291500 -22.291500 -0.000108 -0.000004 40.357500 5.671500 -17.600200 -2.192480 -6.469440 -0.000000 -175.301000 -7.986490 -0.750274 39.081100 -0.000007 -0.000012 -0.111202 0.268735 22.479700 40.985400 -0.000006 -0.000013 -0.008399 3.801390 -67.216300 11.754300 -0.000000 0.000003 -0.000063 -0.000689 -16.604200 -2.192510 6.469440 -0.000001 179.107000 15.800900 -177.636000 -39.081100 -0.002282 -0.040193 0.010965 -0.022542 18.725300 -40.985400 0.000008 0.000006 4.714370 7.515570 -66.979700 -11.754300 -0.000006 -0.000006 -0.007901 -0.087222 -20.124800
0.000000 0.000000 0.000000 0.000000 0.000000 -0.000000 -0.315389 92.233400 1.023010 88.011400 -0.210105 4.762620 15.735700 0.000005 -0.000001 81.092700 86.098300 -80.652000 8.984550 -0.406207 -0.000000 -0.051671 -1.238000 0.880283 16.377300 -0.000001 -0.000001 5.179410 -2.460200 0.844461 6.456720 -0.000001 -0.000000 6.203510 -3.395650 -1.132320 12.994200 -0.242716 4.980390 -84.284700 -11.668600 -63.671600 5.348090 -0.000007 -0.000001 -52.585300 -42.114900 -96.430700 24.328600 0.000019 0.000005 14.565300 7.823600 -62.350400 22.291600 -0.000001 0.000005 43.008100 5.675670 -23.839800 12.994500 -0.242716 -4.980390 93.156900 -7.814210 -67.919200 -5.348130 -0.000001 -0.000004 -44.868000 -43.458700 -96.778300 -24.328900 0.000322 -0.000009 12.108200 6.975930 -60.487200 -22.291500 -0.000108 -0.000004 46.282900 5.681780 -20.600900 -2.192480 -6.469440 -0.000000 -175.283000 -8.003220 -0.703033 39.081100 -0.000007 -0.000012 -0.111285 0.268415 22.518900 40.985400 -0.000006 -0.000013 -0.033121 3.717250 -67.212700 11.754300 -0.000000 0.000003 -0.000059 -0.000651 -16.602800 -2.192510 6.469440 -0.000001 179.106000 15.738400 -177.617000 -39.081100 -0.002282 -0.040193 0.010318 -0.020563 18.785700 -40.985400 0.000008 0.000006 4.726840 7.550960 -66.978900 -11.754300 -0.000006 -0.000006 -0.008229 -0.089891 -20.233700
0.000000 0.000000 0.000000 0.000000 0.000000 -0.000000 -0.333813 92.234500 0.985111 87.985200 -0.262061 4.749390 15.735700 0.000005 -0.000001 81.386000 86.047300 -80.950100 8.984550 -0.406207 -0.000000 0.055008 -1.213050 0.871929 16.377300 -0.000001 -0.000001 4.931580 -2.449830 0.882732 6.456720 -0.000001 -0.000000 6.230820 -3.357600 -1.041740 12.994200 -0.242716 4.980390 -84.362900 -11.496300 -63.653200 5.348090 -0.000007 -0.000001 -53.385400 -42.543800 -95.847700 24.328600 0.000019 0.000005 11.211500 6.735590 -59.386200 22.291600 -0.000001 0.000005 38.078100 5.681390 -20.250600 12.994500 -0.242716 -4.980390 93.073300 -7.611380 -67.934300 -5.348130 -0.000001 -0.000004 -46.624600 -43.046700 -96.955100 -24.328900 0.000322 -0.000009 9.954320 7.027960 -55.121000 -22.291500 -0.000108 -0.000004 44.009000 5.676000 -18.472200 -2.192480 -6.469440 -0.000000 -175.249000 -8.044490 -0.747803 39.081100 -0.000007 -0.000012 -0.111260 0.267938 22.550400 40.985400 -0.000006 -0.000013 -0.043695 3.702270 -67.207600 11.754300 -0.000000 0.000003 -0.000059 -0.000649 -16.602700 -2.192510 6.469440 -0.000001 179.154000 15.745400 -177.671000 -39.081100 -0.002282 -0.040193 0.010233 -0.020295 18.800200 -40.985400 0.000008 0.000006 4.764580 7.583630 -66.961300 -11.754300 -0.000006 -0.000006 -0.008100 -0.088848 -20.191200
